<svg width="24" height="24" viewBox="0 0 24 24" fill="none" xmlns="http://www.w3.org/2000/svg">
<path d="M18.6472 19.4722C17.8708 18.4442 16.8664 17.6106 15.713 17.037C14.5596 16.4634 13.2887 16.1654 12.0006 16.1666C10.7124 16.1654 9.44154 16.4634 8.28813 17.037C7.13473 17.6106 6.13027 18.4442 5.35389 19.4722M18.6472 19.4722C20.1622 18.1246 21.2307 16.3483 21.713 14.3789C22.1953 12.4094 22.0675 10.3399 21.3466 8.44475C20.6257 6.5496 19.3458 4.91836 17.6766 3.76736C16.0073 2.61637 14.0276 2 12 2C9.9724 2 7.9927 2.61637 6.32345 3.76736C4.6542 4.91836 3.37426 6.5496 2.65337 8.44475C1.93249 10.3399 1.80473 12.4094 2.28702 14.3789C2.76932 16.3483 3.83889 18.1246 5.35389 19.4722M18.6472 19.4722C16.8184 21.1035 14.4513 22.0035 12.0006 22C9.54948 22.0038 7.18304 21.1038 5.35389 19.4722M15.3339 9.49979C15.3339 10.3839 14.9827 11.2317 14.3576 11.8569C13.7325 12.482 12.8846 12.8332 12.0006 12.8332C11.1165 12.8332 10.2687 12.482 9.64353 11.8569C9.01841 11.2317 8.66722 10.3839 8.66722 9.49979C8.66722 8.61572 9.01841 7.76786 9.64353 7.14273C10.2687 6.5176 11.1165 6.1664 12.0006 6.1664C12.8846 6.1664 13.7325 6.5176 14.3576 7.14273C14.9827 7.76786 15.3339 8.61572 15.3339 9.49979Z" stroke="#616161" stroke-width="1.5" stroke-linecap="round" stroke-linejoin="round"/>
</svg>
