<svg width="24" height="24" viewBox="0 0 24 24" fill="none" xmlns="http://www.w3.org/2000/svg">
<path d="M20.2576 15.4044C20.7474 15.689 21.1466 16.1064 21.4091 16.6084C21.6716 17.1104 21.7865 17.6764 21.7407 18.241C20.5409 18.6603 19.2665 18.8235 17.9997 18.72C17.9958 17.5866 17.6695 16.4768 17.0587 15.522C16.5166 14.6718 15.7689 13.972 14.8846 13.4875C14.0003 13.003 13.0081 12.7493 11.9997 12.75C10.9916 12.7495 9.99957 13.0032 9.11547 13.4877C8.23137 13.9723 7.48374 14.6719 6.94174 15.522C6.33136 16.4769 6.00333 17.5857 5.99974 18.719M17.9987 18.719L17.9997 18.75C17.9997 18.975 17.9877 19.197 17.9627 19.416C16.1481 20.4571 14.0918 21.0033 11.9997 21C9.82974 21 7.79274 20.424 6.03674 19.416C6.01103 19.1846 5.99868 18.9519 5.99974 18.719M5.99974 18.719C4.73337 18.8263 3.45965 18.6637 2.26074 18.242C2.21509 17.6776 2.33014 17.1117 2.59257 16.6099C2.855 16.1081 3.25411 15.6908 3.74374 15.4063M14.9997 6.75C14.9997 7.54565 14.6837 8.30871 14.1211 8.87132C13.5585 9.43393 12.7954 9.75 11.9997 9.75C11.2041 9.75 10.441 9.43393 9.87842 8.87132C9.31581 8.30871 8.99974 7.54565 8.99974 6.75C8.99974 5.95435 9.31581 5.19129 9.87842 4.62868C10.441 4.06607 11.2041 3.75 11.9997 3.75C12.7954 3.75 13.5585 4.06607 14.1211 4.62868C14.6837 5.19129 14.9997 5.95435 14.9997 6.75ZM20.9997 9.75C20.9997 10.0455 20.9415 10.3381 20.8285 10.611C20.7154 10.884 20.5497 11.1321 20.3407 11.341C20.1318 11.5499 19.8838 11.7157 19.6108 11.8287C19.3378 11.9418 19.0452 12 18.7497 12C18.4543 12 18.1617 11.9418 17.8887 11.8287C17.6157 11.7157 17.3677 11.5499 17.1588 11.341C16.9498 11.1321 16.7841 10.884 16.671 10.611C16.5579 10.3381 16.4997 10.0455 16.4997 9.75C16.4997 9.15326 16.7368 8.58097 17.1588 8.15901C17.5807 7.73705 18.153 7.5 18.7497 7.5C19.3465 7.5 19.9188 7.73705 20.3407 8.15901C20.7627 8.58097 20.9997 9.15326 20.9997 9.75ZM7.49974 9.75C7.49974 10.0455 7.44154 10.3381 7.32847 10.611C7.2154 10.884 7.04966 11.1321 6.84073 11.341C6.6318 11.5499 6.38376 11.7157 6.11078 11.8287C5.8378 11.9418 5.54522 12 5.24974 12C4.95427 12 4.66169 11.9418 4.3887 11.8287C4.11572 11.7157 3.86768 11.5499 3.65875 11.341C3.44982 11.1321 3.28409 10.884 3.17101 10.611C3.05794 10.3381 2.99974 10.0455 2.99974 9.75C2.99974 9.15326 3.23679 8.58097 3.65875 8.15901C4.08071 7.73705 4.653 7.5 5.24974 7.5C5.84648 7.5 6.41877 7.73705 6.84073 8.15901C7.26269 8.58097 7.49974 9.15326 7.49974 9.75Z" stroke="#616161" stroke-width="1.5" stroke-linecap="round" stroke-linejoin="round"/>
</svg>
