<svg width="24" height="24" viewBox="0 0 24 24" fill="none" xmlns="http://www.w3.org/2000/svg">
<path d="M14.1659 6.41846C12.8803 5.91901 11.4621 5.87687 10.1491 6.2991C8.83616 6.72132 7.70833 7.58223 6.95484 8.7374C6.20135 9.89257 5.86804 11.2717 6.01082 12.6435C6.1536 14.0153 6.76379 15.2962 7.73903 16.2715C8.71426 17.2467 9.99521 17.8569 11.367 17.9997C12.7388 18.1425 14.1179 17.8091 15.2731 17.0557C16.4283 16.3022 17.2892 15.1743 17.7114 13.8614C18.1336 12.5484 18.0915 11.1302 17.592 9.84458M22 12C22 17.5228 17.5228 22 12 22C6.47715 22 2 17.5228 2 12C2 6.47715 6.47715 2 12 2C17.5228 2 22 6.47715 22 12ZM12.7187 13.3372C12.4529 13.603 12.0924 13.7524 11.7164 13.7524C11.3405 13.7524 10.98 13.603 10.7142 13.3372C10.4484 13.0714 10.299 12.7109 10.299 12.335C10.299 11.959 10.4484 11.5985 10.7142 11.3327C11.2652 10.7817 15.2217 8.82968 15.2217 8.82968C15.2217 8.82968 13.2697 12.7862 12.7187 13.3372Z" stroke="#616161" stroke-width="1.5" stroke-linecap="round" stroke-linejoin="round"/>
</svg>
