<svg width="24" height="24" viewBox="0 0 24 24" fill="none" xmlns="http://www.w3.org/2000/svg">
<path d="M19 5.00012L13.41 10.5901M21.5 4.00012L19 5.00012L20 2.50012M21.2388 8.17353C22.1242 10.311 22.241 12.6893 21.5694 14.9032C20.8978 17.1171 19.4794 19.0297 17.5557 20.3151C15.6321 21.6004 13.3223 22.179 11.0198 21.9522C8.71743 21.7254 6.56488 20.7074 4.92895 19.0714C3.29302 17.4355 2.27494 15.283 2.04817 12.9805C1.8214 10.6781 2.39998 8.36832 3.68532 6.44467C4.97066 4.52102 6.88324 3.10255 9.09717 2.43097C11.3111 1.75938 13.6894 1.87622 15.8268 2.76157M18 12.0001C18 15.3138 15.3137 18.0001 12 18.0001C8.68629 18.0001 6 15.3138 6 12.0001C6 8.68641 8.68629 6.00012 12 6.00012M14 12.0001C14 13.1046 13.1046 14.0001 12 14.0001C10.8954 14.0001 10 13.1046 10 12.0001C10 10.8955 10.8954 10.0001 12 10.0001C13.1046 10.0001 14 10.8955 14 12.0001Z" stroke="#616161" stroke-width="1.5" stroke-linecap="round" stroke-linejoin="round"/>
</svg>
