<svg width="16" height="16" viewBox="0 0 16 16" fill="none" xmlns="http://www.w3.org/2000/svg">
<path d="M2.5 3C2.10218 3 1.72064 3.15804 1.43934 3.43934C1.15804 3.72064 1 4.10218 1 4.5V5.293C1.026 5.302 1.051 5.313 1.076 5.325L7.674 8.51C7.88 8.61 8.12 8.61 8.326 8.51L14.924 5.325C14.9487 5.31296 14.9741 5.30227 15 5.293V4.5C15 4.10218 14.842 3.72064 14.5607 3.43934C14.2794 3.15804 13.8978 3 13.5 3H2.5Z" fill="#461D7C"/>
<path d="M15 6.9541L8.978 9.8601C8.67299 10.0073 8.33868 10.0838 8 10.0838C7.66132 10.0838 7.32701 10.0073 7.022 9.8601L1 6.9541V11.5001C1 11.8979 1.15804 12.2795 1.43934 12.5608C1.72064 12.8421 2.10218 13.0001 2.5 13.0001H13.5C13.8978 13.0001 14.2794 12.8421 14.5607 12.5608C14.842 12.2795 15 11.8979 15 11.5001V6.9541Z" fill="#461D7C"/>
</svg>
