<svg width="16" height="16" viewBox="0 0 16 16" fill="none" xmlns="http://www.w3.org/2000/svg">
<path fill-rule="evenodd" clip-rule="evenodd" d="M3.855 7.286L4.922 6.752C5.11143 6.65747 5.26598 6.50526 5.36338 6.31729C5.46078 6.12931 5.49601 5.91528 5.464 5.706L5.024 2.848C4.9877 2.61197 4.86813 2.39671 4.68692 2.24118C4.5057 2.08564 4.27481 2.00009 4.036 2H3C2.73478 2 2.48043 2.10536 2.29289 2.29289C2.10536 2.48043 2 2.73478 2 3V5C2 5.709 2.082 6.4 2.238 7.062C2.62256 8.69074 3.45304 10.1802 4.6364 11.3636C5.81976 12.547 7.30926 13.3774 8.938 13.762C9.61389 13.9204 10.3058 14.0002 11 14H13C13.2652 14 13.5196 13.8946 13.7071 13.7071C13.8946 13.5196 14 13.2652 14 13V11.964C13.9999 11.7252 13.9144 11.4943 13.7588 11.3131C13.6033 11.1319 13.388 11.0123 13.152 10.976L10.294 10.536C10.0847 10.504 9.87069 10.5392 9.68271 10.6366C9.49474 10.734 9.34253 10.8886 9.248 11.078L8.714 12.145C7.57609 11.7796 6.54166 11.1482 5.69647 10.3032C4.85128 9.45814 4.22067 8.42384 3.855 7.286Z" fill="#461D7C"/>
</svg>
